<svg width="256" height="256" viewBox="0 0 256 256" fill="none" xmlns="http://www.w3.org/2000/svg">
<path d="M62.8125 113.25C62.8125 113.479 62.4271 114.031 61.6562 114.906C59.5312 117.344 57.5208 118.562 55.625 118.562C54.4167 118.562 53.4271 118.146 52.6562 117.312C51.9062 116.458 51.5312 115.344 51.5312 113.969C51.5312 112.802 52.2188 110.917 53.5938 108.312C54.2396 107.104 54.5625 106.104 54.5625 105.312C54.5625 104.271 53.9792 103.385 52.8125 102.656C51.6667 101.906 50.2604 101.531 48.5938 101.531C43.8229 101.531 39.3958 103.365 35.3125 107.031C31.25 110.698 29.2188 114.667 29.2188 118.938C29.2188 121.104 29.8958 122.875 31.25 124.25C32.625 125.625 34.3958 126.312 36.5625 126.312C38.9167 126.312 41.2812 125.458 43.6562 123.75C46.0521 122.021 47.7396 119.948 48.7188 117.531C48.7812 117.323 48.8646 117.219 48.9688 117.219C49.1562 117.219 49.25 117.323 49.25 117.531C49.25 117.969 48.8854 118.75 48.1562 119.875C47.4271 120.979 46.6771 121.906 45.9062 122.656C43.0938 125.427 39.9375 126.812 36.4375 126.812C34.0625 126.812 32.1562 126.083 30.7188 124.625C29.2812 123.167 28.5625 121.229 28.5625 118.812C28.5625 114.417 30.6771 110.344 34.9062 106.594C39.1562 102.844 43.7604 100.969 48.7188 100.969C50.9062 100.969 52.6146 101.51 53.8438 102.594C55.0938 103.677 55.7188 105.167 55.7188 107.062C55.7188 108.479 55.2188 110.156 54.2188 112.094C53.3229 113.865 52.875 115.062 52.875 115.688C52.875 117.229 53.7917 118 55.625 118C57.7083 118 59.8646 116.458 62.0938 113.375C62.2812 113.125 62.4375 113 62.5625 113C62.7292 113 62.8125 113.083 62.8125 113.25ZM96.2812 107.562C96.2812 107.938 96.0625 108.125 95.625 108.125C95.4375 108.125 94.7396 108 93.5312 107.75C91.3021 107.292 89.4479 107.062 87.9688 107.062C84.6146 108.083 81.6458 110.062 79.0625 113C76.5 115.938 73.5729 120.698 70.2812 127.281C65.2396 137.385 58.7812 143.354 50.9062 145.188C52.5521 145.438 53.9792 145.562 55.1875 145.562C59.0208 145.562 62.2396 144.333 64.8438 141.875C67.3646 139.5 69.4583 136.979 71.125 134.312C71.3125 134.021 71.4583 133.875 71.5625 133.875C71.6875 133.875 71.7604 133.917 71.7812 134C71.7812 134.312 70.5833 135.927 68.1875 138.844C65.9583 141.573 63.9271 143.458 62.0938 144.5C60.2604 145.521 58.0208 146.031 55.375 146.031C53.8542 146.031 52 145.812 49.8125 145.375C48.4792 145.812 46.9479 146.031 45.2188 146.031C44.0104 146.031 43.4062 145.812 43.4062 145.375C43.4062 144.875 44.2188 144.625 45.8438 144.625C46.9896 144.625 48.3125 144.729 49.8125 144.938C53.0417 144.167 55.4792 142.896 57.125 141.125C58.7917 139.354 61.9896 134.562 66.7188 126.75H54.6875C49.5833 132.125 45.6354 135.948 42.8438 138.219C36.3229 143.51 30.1771 146.156 24.4062 146.156C21.1146 146.156 18.3125 145.385 16 143.844C13.7083 142.302 12.5625 140.427 12.5625 138.219C12.5625 137.073 12.9062 136.094 13.5938 135.281C14.3021 134.469 15.1562 134.062 16.1562 134.062C17.5104 134.062 18.1875 134.719 18.1875 136.031C18.1875 136.719 17.9479 137.312 17.4688 137.812C17.0104 138.292 16.4688 138.531 15.8438 138.531C14.8646 138.531 14.375 138.062 14.375 137.125L14.4375 136.5C14.4792 136.417 14.5 136.302 14.5 136.156C14.5 135.948 14.4062 135.844 14.2188 135.844C14.0104 135.844 13.8021 136.104 13.5938 136.625C13.3854 137.146 13.2812 137.677 13.2812 138.219C13.2812 140.26 14.3542 141.99 16.5 143.406C18.6458 144.802 21.2812 145.5 24.4062 145.5C28.8854 145.5 33.8125 143.302 39.1875 138.906C40.4167 137.927 41.7812 136.635 43.2812 135.031C46.2604 131.906 48.6354 129.469 50.4062 127.719L51.3438 126.75H45.2812L45.6562 126.188C47.6562 126.188 49.7083 126.208 51.8125 126.25C57.9167 119.458 63.8333 114.5 69.5625 111.375C75.3125 108.229 81.3854 106.635 87.7812 106.594C89.2604 106.302 90.6458 106.156 91.9375 106.156C94.8333 106.156 96.2812 106.625 96.2812 107.562ZM86.375 107.188C80.9375 107.458 75.8958 109.021 71.25 111.875C66.6042 114.729 61.25 119.521 55.1875 126.25H67.0312C69.6979 121.604 72.9167 117.438 76.6875 113.75C80.3958 110.083 83.625 107.896 86.375 107.188ZM98.6725 113.375C90.86 125.792 85.9329 133.729 83.8913 137.188C81.8288 140.708 80.7975 142.927 80.7975 143.844C80.7975 144.781 81.2246 145.25 82.0788 145.25C83.9746 145.25 87.1933 141.948 91.735 135.344C91.86 135.135 91.9746 135.031 92.0788 135.031C92.2038 135.031 92.2663 135.094 92.2663 135.219C92.2454 135.281 92.1413 135.448 91.9538 135.719L90.61 137.562C86.6725 143 83.7663 145.719 81.8913 145.719C80.9329 145.719 80.1517 145.365 79.5475 144.656C78.9433 143.927 78.6413 143 78.6413 141.875C78.6413 140.75 79.0163 139.448 79.7663 137.969C76.1204 143.135 73.4121 145.719 71.6413 145.719C70.5371 145.719 69.61 145.25 68.86 144.312C68.11 143.354 67.735 142.156 67.735 140.719C67.735 137.281 69.8704 134.167 74.1413 131.375C77.5371 129.146 80.2038 128.031 82.1413 128.031C83.4329 128.031 84.0788 128.656 84.0788 129.906C84.0788 130.49 83.9017 131.146 83.5475 131.875L94.7038 113.188C95.3913 113.396 96.0683 113.5 96.735 113.5C96.9017 113.5 97.5475 113.458 98.6725 113.375ZM83.61 130.156C83.61 129.052 83.0996 128.5 82.0788 128.5C80.2038 128.5 77.7246 130.375 74.6413 134.125C71.5788 137.854 70.0475 140.865 70.0475 143.156C70.0475 144.552 70.6204 145.25 71.7663 145.25C73.4329 145.25 76.2975 142.354 80.36 136.562C82.5267 133.438 83.61 131.302 83.61 130.156ZM101.97 122.281C101.97 123.01 101.658 123.698 101.033 124.344C100.428 124.969 99.7617 125.281 99.0325 125.281C98.095 125.281 97.6263 124.812 97.6263 123.875C97.6263 123.188 97.9492 122.531 98.595 121.906C99.2408 121.26 99.9179 120.938 100.626 120.938C101.522 120.938 101.97 121.385 101.97 122.281ZM102.408 135.219C102.387 135.281 102.283 135.448 102.095 135.719L100.751 137.562C96.8346 143 93.845 145.719 91.7825 145.719C90.8033 145.719 89.9804 145.375 89.3138 144.688C88.6679 143.979 88.345 143.104 88.345 142.062C88.345 140.854 89.0638 139.021 90.5013 136.562L95.3763 128.281C96.0221 128.427 96.5325 128.5 96.9075 128.5C97.47 128.5 98.2617 128.427 99.2825 128.281L92.1888 139.938C91.1679 141.625 90.6575 142.927 90.6575 143.844C90.6575 144.781 91.1471 145.25 92.1263 145.25C93.9804 145.25 97.2408 141.948 101.908 135.344C102.012 135.135 102.116 135.031 102.22 135.031C102.345 135.031 102.408 135.094 102.408 135.219ZM113.361 128.031L113.111 128.5H109.018L102.049 140.406C101.195 141.844 100.768 142.99 100.768 143.844C100.768 144.781 101.257 145.25 102.236 145.25C104.132 145.25 107.33 141.948 111.83 135.344C111.976 135.135 112.101 135.031 112.205 135.031C112.33 135.031 112.393 135.094 112.393 135.219C112.372 135.281 112.268 135.448 112.08 135.719L110.736 137.562C106.82 143 103.872 145.719 101.893 145.719C100.913 145.719 100.09 145.365 99.4238 144.656C98.7779 143.948 98.455 143.062 98.455 142C98.455 140.75 99.0071 139.188 100.111 137.312L105.361 128.5H102.174L102.486 128.031H105.611L109.268 121.969C109.893 122.135 110.486 122.219 111.049 122.219C111.632 122.219 112.236 122.135 112.861 121.969L109.268 128.031H113.361ZM131.409 135.219C131.409 135.531 130.263 136.958 127.971 139.5C125.43 142.292 122.117 144.812 118.034 147.062L116.503 149.812C113.482 155.229 110.325 159.26 107.034 161.906C103.638 164.635 100.69 166 98.19 166C97.3358 166 96.6275 165.729 96.065 165.188C95.4817 164.646 95.19 163.979 95.19 163.188C95.19 159 100.013 154.667 109.659 150.188C110.45 149.792 111.638 149.24 113.221 148.531L113.69 148.25L119.19 138.469C117.023 141.448 115.45 143.406 114.471 144.344C113.492 145.26 112.503 145.719 111.503 145.719C110.648 145.719 109.898 145.354 109.253 144.625C108.628 143.896 108.315 143.042 108.315 142.062C108.315 140.875 109.055 139.021 110.534 136.5L115.346 128.375C115.825 128.458 116.378 128.5 117.003 128.5C117.544 128.5 118.294 128.427 119.253 128.281L113.096 138.281C111.346 141.115 110.471 142.969 110.471 143.844C110.471 144.781 110.898 145.25 111.753 145.25C114.003 145.25 117.461 141.26 122.128 133.281L125.003 128.375C125.482 128.458 126.065 128.5 126.753 128.5C127.315 128.5 128.013 128.427 128.846 128.281C126.263 132.385 122.763 138.406 118.346 146.344C120.888 145.031 123.034 143.615 124.784 142.094C126.534 140.552 128.492 138.385 130.659 135.594C130.95 135.219 131.138 135.031 131.221 135.031C131.346 135.031 131.409 135.094 131.409 135.219ZM113.378 148.781C113.044 148.969 111.867 149.562 109.846 150.562C100.367 155.271 95.6275 159.5 95.6275 163.25C95.6275 164.812 96.5025 165.594 98.2525 165.594C100.461 165.594 102.659 164.396 104.846 162C107.034 159.604 109.742 155.406 112.971 149.406C112.971 149.406 113.107 149.198 113.378 148.781ZM152.831 135.219C152.831 135.656 151.31 137.677 148.269 141.281C145.81 144.24 143.873 145.719 142.456 145.719C141.498 145.719 140.717 145.365 140.113 144.656C139.508 143.927 139.206 143.021 139.206 141.938C139.206 140.812 139.54 139.594 140.206 138.281C138.123 141.198 136.529 143.167 135.425 144.188C134.321 145.208 133.248 145.719 132.206 145.719C131.102 145.719 130.175 145.25 129.425 144.312C128.675 143.354 128.3 142.156 128.3 140.719C128.3 136.719 131.123 133.177 136.769 130.094C139.248 128.719 141.248 128.031 142.769 128.031C144.06 128.031 144.706 128.656 144.706 129.906C144.706 130.26 144.623 130.729 144.456 131.312L146.05 128.281C146.675 128.427 147.227 128.5 147.706 128.5C148.269 128.5 148.998 128.427 149.894 128.281L144.363 137.438C142.446 140.646 141.488 142.76 141.488 143.781C141.488 144.76 141.894 145.25 142.706 145.25C143.54 145.25 144.873 144.302 146.706 142.406C148.54 140.49 150.404 138.135 152.3 135.344C152.425 135.135 152.54 135.031 152.644 135.031C152.769 135.031 152.831 135.094 152.831 135.219ZM144.238 130.031C144.238 129.01 143.769 128.5 142.831 128.5C140.915 128.5 138.394 130.375 135.269 134.125C132.165 137.875 130.613 140.906 130.613 143.219C130.613 144.573 131.217 145.25 132.425 145.25C133.863 145.25 136.352 142.865 139.894 138.094C142.79 134.177 144.238 131.49 144.238 130.031ZM237.395 112.875C237.395 113.938 237.27 115.062 237.02 116.25C236.77 117.417 236.53 118 236.301 118C236.176 118 236.114 117.938 236.114 117.812C236.114 117.667 236.135 117.531 236.176 117.406C236.655 116.135 236.895 114.646 236.895 112.938C236.895 110.312 236.093 108.208 234.489 106.625C232.905 105.021 230.801 104.219 228.176 104.219C223.135 104.219 218.249 106.615 213.52 111.406C215.312 114.74 216.208 118.26 216.208 121.969C216.208 128.802 213.583 134.594 208.333 139.344C203.103 144.094 196.708 146.469 189.145 146.469C186.812 146.469 183.614 146.146 179.551 145.5C176.03 146.146 172.655 146.469 169.426 146.469C163.926 146.469 161.176 145.917 161.176 144.812C161.176 144.271 161.843 143.792 163.176 143.375C164.53 142.958 166.103 142.75 167.895 142.75C170.062 142.75 174.374 143.458 180.833 144.875C185.187 143.729 188.614 141.927 191.114 139.469C193.551 137.073 197.291 131.854 202.333 123.812C205.374 118.938 208.718 114.781 212.364 111.344C209.322 106.219 204.395 103.656 197.583 103.656C190.541 103.656 184.083 106.427 178.208 111.969C175.249 114.76 172.885 117.844 171.114 121.219C169.343 124.594 168.458 127.698 168.458 130.531C168.458 132.781 169.166 134.583 170.583 135.938C172.02 137.292 173.916 137.969 176.27 137.969C180.249 137.969 184.374 135.823 188.645 131.531C192.937 127.24 195.083 123.115 195.083 119.156C195.083 117.656 194.666 116.448 193.833 115.531C192.999 114.615 191.905 114.156 190.551 114.156C189.01 114.156 188.239 114.406 188.239 114.906C188.239 115.052 188.353 115.125 188.583 115.125C188.708 115.125 188.812 115.104 188.895 115.062H189.333C190.353 115.062 190.864 115.531 190.864 116.469C190.864 117.156 190.603 117.76 190.083 118.281C189.562 118.781 188.947 119.031 188.239 119.031C186.968 119.031 186.333 118.344 186.333 116.969C186.333 116.031 186.749 115.229 187.583 114.562C188.416 113.896 189.426 113.562 190.614 113.562C192.135 113.562 193.364 114.073 194.301 115.094C195.26 116.094 195.739 117.406 195.739 119.031C195.739 123.24 193.541 127.542 189.145 131.938C184.77 136.333 180.478 138.531 176.27 138.531C173.374 138.531 170.989 137.573 169.114 135.656C167.239 133.719 166.301 131.24 166.301 128.219C166.301 121.74 169.499 115.938 175.895 110.812C182.291 105.667 189.52 103.094 197.583 103.094C204.437 103.094 209.603 105.625 213.083 110.688C218.166 106 223.333 103.656 228.583 103.656C231.208 103.656 233.333 104.51 234.958 106.219C236.583 107.906 237.395 110.125 237.395 112.875ZM214.489 119.656C214.489 116.99 213.937 114.49 212.833 112.156C210.02 115.365 207.499 119.396 205.27 124.25C202.333 130.688 199.291 135.323 196.145 138.156C192.895 141.052 188.135 143.375 181.864 145.125C184.51 145.688 187.322 145.969 190.301 145.969C198.28 145.969 204.739 142.104 209.676 134.375C212.885 129.375 214.489 124.469 214.489 119.656ZM178.458 145.312C172.708 144.5 168.416 144.094 165.583 144.094C163.083 144.094 161.833 144.333 161.833 144.812C161.833 145.542 164.562 145.906 170.02 145.906C173.145 145.906 175.958 145.708 178.458 145.312ZM238.536 135.219C238.536 135.656 237.015 137.677 233.974 141.281C231.515 144.24 229.578 145.719 228.161 145.719C227.203 145.719 226.422 145.365 225.818 144.656C225.213 143.927 224.911 143.021 224.911 141.938C224.911 140.812 225.245 139.594 225.911 138.281C223.828 141.198 222.234 143.167 221.13 144.188C220.026 145.208 218.953 145.719 217.911 145.719C216.807 145.719 215.88 145.25 215.13 144.312C214.38 143.354 214.005 142.156 214.005 140.719C214.005 136.719 216.828 133.177 222.474 130.094C224.953 128.719 226.953 128.031 228.474 128.031C229.765 128.031 230.411 128.656 230.411 129.906C230.411 130.26 230.328 130.729 230.161 131.312L231.755 128.281C232.38 128.427 232.932 128.5 233.411 128.5C233.974 128.5 234.703 128.427 235.599 128.281L230.068 137.438C228.151 140.646 227.193 142.76 227.193 143.781C227.193 144.76 227.599 145.25 228.411 145.25C229.245 145.25 230.578 144.302 232.411 142.406C234.245 140.49 236.109 138.135 238.005 135.344C238.13 135.135 238.245 135.031 238.349 135.031C238.474 135.031 238.536 135.094 238.536 135.219ZM229.943 130.031C229.943 129.01 229.474 128.5 228.536 128.5C226.62 128.5 224.099 130.375 220.974 134.125C217.87 137.875 216.318 140.906 216.318 143.219C216.318 144.573 216.922 145.25 218.13 145.25C219.568 145.25 222.057 142.865 225.599 138.094C228.495 134.177 229.943 131.49 229.943 130.031ZM248.553 123.062C248.553 123.896 247.25 125.552 244.646 128.031C244.521 128.677 244.459 129.24 244.459 129.719C244.459 130.927 245.011 132.844 246.115 135.469C246.678 136.781 246.959 137.885 246.959 138.781C246.959 140.656 246.042 142.281 244.209 143.656C242.396 145.031 240.24 145.719 237.74 145.719C236.323 145.719 235.188 145.323 234.334 144.531C233.5 143.719 233.084 142.635 233.084 141.281C233.084 139.719 233.636 138.198 234.74 136.719C235.865 135.24 237.021 134.5 238.209 134.5C238.417 134.5 238.605 134.542 238.771 134.625L241.271 131.562C242.021 130.667 243.021 129.427 244.271 127.844C244.625 126.385 245.167 125.135 245.896 124.094C246.625 123.052 247.344 122.531 248.053 122.531C248.386 122.531 248.553 122.708 248.553 123.062ZM244.209 135.406C244.209 134.781 244.188 134.167 244.146 133.562C244.105 132.938 244.084 132.052 244.084 130.906C244.084 129.969 244.125 129.188 244.209 128.562C243.042 130.042 241.355 132.125 239.146 134.812C239.542 135.146 239.74 135.552 239.74 136.031C239.74 137.26 238.73 138.094 236.709 138.531C235.896 138.719 235.188 139.167 234.584 139.875C234 140.562 233.709 141.292 233.709 142.062C233.709 142.896 234.011 143.594 234.615 144.156C235.219 144.719 235.969 145 236.865 145C238.615 145 240.271 143.99 241.834 141.969C243.417 139.927 244.209 137.74 244.209 135.406Z" fill="white"/>
</svg>
