<svg width="256" height="256" viewBox="0 0 256 256" fill="none" xmlns="http://www.w3.org/2000/svg">
<path d="M119.35 148.643C118.112 148.643 116.926 148.29 115.794 147.582C114.662 146.91 113.742 146.025 113.035 144.929C112.327 143.832 111.973 142.7 111.973 141.532C111.973 140.117 112.363 138.773 113.141 137.499C113.919 136.19 114.892 135.076 116.06 134.156C117.263 133.201 118.448 132.511 119.615 132.086C118.412 132.44 117.174 132.617 115.9 132.617C114.273 132.617 112.752 132.316 111.337 131.715C109.921 131.113 108.789 130.264 107.94 129.167C107.091 128.035 106.667 126.709 106.667 125.187C106.667 123.666 106.985 122.339 107.622 121.207C108.294 120.04 109.179 119.138 110.275 118.501C111.372 117.864 112.575 117.546 113.884 117.546C115.441 117.546 117.033 118.006 118.66 118.925C120.323 119.81 121.703 120.942 122.799 122.322C122.198 121.437 121.667 120.358 121.207 119.085C120.783 117.776 120.57 116.413 120.57 114.998C120.57 113.583 120.871 112.31 121.473 111.177C122.109 110.01 122.976 109.09 124.073 108.418C125.205 107.71 126.514 107.357 128 107.357C130.193 107.357 131.962 108.099 133.307 109.585C134.651 111.036 135.323 112.84 135.323 114.998C135.323 116.307 135.129 117.616 134.74 118.925C134.35 120.199 133.802 121.331 133.094 122.322L133.307 122.056C134.439 120.641 135.766 119.544 137.287 118.766C138.844 117.952 140.453 117.546 142.116 117.546C143.39 117.546 144.575 117.864 145.672 118.501C146.768 119.102 147.653 119.969 148.325 121.101C148.997 122.233 149.333 123.578 149.333 125.134C149.333 126.691 148.873 128.035 147.954 129.167C147.069 130.3 145.919 131.166 144.504 131.768C143.089 132.334 141.603 132.617 140.046 132.617C139.233 132.582 138.507 132.528 137.871 132.458C137.234 132.352 136.703 132.228 136.279 132.086C137.517 132.511 138.72 133.201 139.887 134.156C141.09 135.076 142.081 136.172 142.859 137.446C143.637 138.72 144.027 140.117 144.027 141.638C144.027 142.7 143.673 143.779 142.965 144.876C142.293 145.937 141.391 146.821 140.259 147.529C139.127 148.272 137.906 148.643 136.597 148.643C134.863 148.643 133.342 148.095 132.033 146.998C130.759 145.937 129.769 144.504 129.061 142.7C128.708 141.78 128.442 140.949 128.265 140.206C128.088 139.427 128 138.737 128 138.136C127.611 141.391 126.656 143.956 125.134 145.831C123.648 147.706 121.72 148.643 119.35 148.643ZM125.028 123.171L126.726 122.534C126.903 122.145 127.009 121.773 127.045 121.42C127.115 121.066 127.151 120.765 127.151 120.517C127.151 120.164 127.08 119.721 126.939 119.191C126.797 118.625 126.726 118.218 126.726 117.97C126.726 117.475 126.832 117.05 127.045 116.697C127.257 116.343 127.575 116.166 128 116.166C128.425 116.166 128.743 116.343 128.955 116.697C129.167 117.05 129.274 117.475 129.274 117.97C129.274 118.324 129.185 118.748 129.008 119.244C128.831 119.739 128.743 120.164 128.743 120.517C128.743 121.119 128.884 121.791 129.167 122.534L130.866 123.171C131.573 122.463 132.139 121.526 132.564 120.358C132.988 119.155 133.201 117.935 133.201 116.697C133.201 115.034 132.723 113.707 131.768 112.716C130.813 111.69 129.557 111.177 128 111.177C126.479 111.177 125.205 111.69 124.179 112.716C123.188 113.707 122.693 115.034 122.693 116.697C122.693 117.935 122.905 119.155 123.33 120.358C123.755 121.526 124.321 122.463 125.028 123.171ZM117.28 131.343C118.731 131.343 119.969 131.06 120.995 130.494V128.69C120.818 128.407 120.464 128.159 119.934 127.947C119.403 127.735 118.695 127.593 117.811 127.522C116.077 127.345 115.211 126.815 115.211 125.93C115.211 125.541 115.334 125.258 115.582 125.081C115.865 124.904 116.166 124.816 116.484 124.816C116.696 124.816 116.98 124.887 117.333 125.028C117.722 125.134 118.147 125.329 118.607 125.612C119.527 126.178 120.5 126.461 121.526 126.461H121.738L122.799 124.975C122.446 124.232 121.879 123.525 121.101 122.852C120.323 122.145 119.438 121.561 118.448 121.101C117.457 120.641 116.431 120.411 115.37 120.411C113.884 120.411 112.663 120.942 111.708 122.003C110.788 123.065 110.328 124.338 110.328 125.824C110.328 127.416 110.965 128.743 112.239 129.804C113.548 130.83 115.228 131.343 117.28 131.343ZM138.667 131.343C140.754 131.343 142.434 130.83 143.708 129.804C145.017 128.743 145.672 127.416 145.672 125.824C145.672 124.268 145.176 122.976 144.186 121.95C143.23 120.924 142.028 120.411 140.577 120.411C139.516 120.411 138.472 120.641 137.446 121.101C136.42 121.561 135.518 122.145 134.74 122.852C133.997 123.56 133.448 124.268 133.094 124.975L134.262 126.461H134.474L134.899 126.408C135.323 126.337 135.748 126.249 136.172 126.143C136.597 126.036 137.022 125.86 137.446 125.612C138.295 125.081 138.95 124.816 139.41 124.816C140.259 124.816 140.683 125.205 140.683 125.983C140.683 126.868 139.993 127.345 138.614 127.416C137.198 127.487 135.996 127.912 135.005 128.69L134.899 130.494C135.925 131.06 137.181 131.343 138.667 131.343ZM120.199 145.247C121.402 145.247 122.463 144.805 123.383 143.92C124.338 143.036 125.081 141.975 125.612 140.736C126.178 139.463 126.461 138.277 126.461 137.181V136.65L126.408 136.226L124.71 135.695C123.471 136.438 122.693 137.411 122.375 138.614C122.056 139.816 121.473 140.418 120.624 140.418C120.305 140.418 120.022 140.294 119.774 140.046C119.562 139.763 119.456 139.48 119.456 139.197C119.456 138.49 119.916 137.818 120.836 137.181C121.756 136.544 122.375 135.589 122.693 134.315L121.738 132.829C120.818 133.006 119.81 133.431 118.713 134.103C117.616 134.775 116.679 135.624 115.9 136.65C115.158 137.676 114.786 138.808 114.786 140.046C114.786 140.966 115.051 141.833 115.582 142.647C116.113 143.425 116.785 144.062 117.599 144.557C118.448 145.017 119.314 145.247 120.199 145.247ZM135.483 145.247C136.402 145.247 137.269 144.999 138.083 144.504C138.932 144.009 139.604 143.372 140.099 142.594C140.63 141.78 140.895 140.931 140.895 140.046C140.895 138.808 140.506 137.694 139.728 136.703C138.985 135.677 138.065 134.828 136.968 134.156C135.907 133.484 134.899 133.041 133.944 132.829L132.988 134.315C133.13 134.917 133.342 135.447 133.625 135.907C133.944 136.367 134.333 136.792 134.793 137.181C135.713 137.924 136.172 138.631 136.172 139.303C136.172 139.587 136.049 139.852 135.801 140.099C135.589 140.312 135.341 140.418 135.058 140.418C134.28 140.418 133.678 139.816 133.254 138.614C132.865 137.517 132.104 136.544 130.972 135.695L129.274 136.226L129.221 136.65V137.181C129.221 137.818 129.344 138.578 129.592 139.463C129.875 140.312 130.247 141.161 130.706 142.01C131.202 142.824 131.768 143.496 132.405 144.027C133.395 144.84 134.421 145.247 135.483 145.247Z" fill="#F8F7F7"/>
</svg>
