<svg width="256" height="256" viewBox="0 0 256 256" fill="none" xmlns="http://www.w3.org/2000/svg">
<path d="M100.039 134L98.9194 131.04H93.7994L92.6954 134H90.9194L95.3674 122.608H97.3354L101.847 134H100.039ZM94.3434 129.552H98.3594L98.1194 128.928C97.6554 127.76 96.9194 125.84 96.3434 124.256C95.7674 125.84 95.0314 127.76 94.5834 128.928L94.3434 129.552ZM108.606 122.608H110.206V134H108.67V132.784C108.078 133.664 107.15 134.192 105.934 134.192C103.63 134.192 102.158 132.512 102.158 129.872C102.158 127.232 103.63 125.552 105.934 125.552C107.102 125.552 108.014 126.032 108.606 126.864V122.608ZM106.238 132.816C107.71 132.816 108.654 131.76 108.654 129.872C108.654 127.984 107.71 126.928 106.238 126.928C104.766 126.928 103.822 128.048 103.822 129.936C103.822 131.824 104.766 132.816 106.238 132.816ZM111.835 124.576V122.864H113.467V124.576H111.835ZM111.851 134V125.744H113.451V134H111.851ZM119.001 127.056H117.337V132.016C117.337 132.496 117.577 132.72 118.281 132.72H119.001V134C118.649 134.032 118.313 134.048 118.025 134.048C116.537 134.048 115.737 133.536 115.737 132.16V127.056H114.409V125.744H115.737V123.376H117.337V125.744H119.001V127.056ZM125.436 125.744H127.132L123.772 135.04C123.196 136.688 122.332 137.184 120.716 137.184C120.396 137.184 120.156 137.168 119.884 137.136V135.84H120.684C121.484 135.84 121.884 135.488 122.124 134.848C122.188 134.656 122.268 134.432 122.348 134.224L119.292 125.744H121.036L121.996 128.576C122.428 129.888 122.844 131.216 123.228 132.528C123.628 131.216 124.044 129.888 124.476 128.576L125.436 125.744ZM134.631 132.768H135.079V134C134.839 134.032 134.551 134.048 134.295 134.048C133.271 134.048 132.807 133.68 132.695 132.88C132.135 133.744 131.207 134.192 130.007 134.192C128.231 134.192 127.063 133.328 127.063 131.744C127.063 130.416 127.863 129.408 130.167 129.184L131.383 129.056C132.183 128.96 132.615 128.688 132.615 128.016C132.615 127.248 132.215 126.832 130.919 126.832C129.623 126.832 129.079 127.2 128.999 128.32H127.415C127.511 126.656 128.439 125.552 130.919 125.552C133.287 125.552 134.183 126.544 134.183 127.984V132.352C134.183 132.608 134.311 132.768 134.631 132.768ZM130.247 132.944C131.415 132.944 132.615 132.288 132.615 130.736V129.872C132.375 130.064 132.039 130.16 131.591 130.208L130.439 130.336C129.111 130.496 128.711 130.96 128.711 131.696C128.711 132.448 129.207 132.944 130.247 132.944ZM143.211 122.608C146.779 122.608 148.859 124.784 148.859 128.304C148.859 131.824 146.779 134 143.211 134H139.147V122.608H143.211ZM143.195 132.496C145.707 132.496 147.067 130.96 147.067 128.304C147.067 125.648 145.707 124.112 143.195 124.112H140.859V132.496H143.195ZM157.073 132.768H157.521V134C157.281 134.032 156.993 134.048 156.737 134.048C155.713 134.048 155.249 133.68 155.137 132.88C154.577 133.744 153.649 134.192 152.449 134.192C150.673 134.192 149.505 133.328 149.505 131.744C149.505 130.416 150.305 129.408 152.609 129.184L153.825 129.056C154.625 128.96 155.057 128.688 155.057 128.016C155.057 127.248 154.657 126.832 153.361 126.832C152.065 126.832 151.521 127.2 151.441 128.32H149.857C149.953 126.656 150.881 125.552 153.361 125.552C155.729 125.552 156.625 126.544 156.625 127.984V132.352C156.625 132.608 156.753 132.768 157.073 132.768ZM152.689 132.944C153.857 132.944 155.057 132.288 155.057 130.736V129.872C154.817 130.064 154.481 130.16 154.033 130.208L152.881 130.336C151.553 130.496 151.153 130.96 151.153 131.696C151.153 132.448 151.649 132.944 152.689 132.944ZM161.505 134.208C159.297 134.208 158.001 133.344 157.889 131.376H159.489C159.617 132.528 160.177 132.944 161.521 132.944C162.817 132.944 163.345 132.528 163.345 131.792C163.345 131.136 162.945 130.816 161.585 130.576L160.737 130.416C158.961 130.096 158.113 129.296 158.113 127.952C158.113 126.496 159.265 125.552 161.297 125.552C163.649 125.552 164.737 126.576 164.785 128.32H163.233C163.169 127.136 162.465 126.8 161.297 126.8C160.257 126.8 159.697 127.216 159.697 127.904C159.697 128.608 160.257 128.88 161.233 129.072L162.097 129.216C164.113 129.6 164.961 130.304 164.961 131.68C164.961 133.296 163.665 134.208 161.505 134.208Z" fill="white"/>
</svg>
