<svg width="256" height="256" viewBox="0 0 256 256" fill="none" xmlns="http://www.w3.org/2000/svg">
<path d="M37.0537 35.5V25.532H38.5517V35.5H37.0537ZM43.6819 28.108C45.2499 28.108 46.2159 29.004 46.2159 30.656V35.5H44.8159V30.852C44.8159 29.816 44.2699 29.34 43.2899 29.34C42.4359 29.34 41.4699 29.97 41.4699 31.426V35.5H40.0699V28.276H41.4139V29.354C41.8899 28.64 42.6599 28.108 43.6819 28.108ZM50.8248 29.424H49.3688V33.764C49.3688 34.184 49.5788 34.38 50.1948 34.38H50.8248V35.5C50.5168 35.528 50.2228 35.542 49.9708 35.542C48.6688 35.542 47.9688 35.094 47.9688 33.89V29.424H46.8068V28.276H47.9688V26.204H49.3688V28.276H50.8248V29.424ZM58.1948 31.944V32.35H52.7488C52.8748 33.82 53.6588 34.492 54.8208 34.492C55.7588 34.492 56.3608 34.016 56.6128 33.288H58.0268C57.6628 34.688 56.5288 35.668 54.7928 35.668C52.7488 35.668 51.3348 34.212 51.3348 31.888C51.3348 29.62 52.7068 28.108 54.7648 28.108C56.9488 28.108 58.1948 29.774 58.1948 31.944ZM54.7648 29.284C53.7148 29.284 52.9448 29.914 52.7628 31.244H56.7528C56.6268 30.124 55.9408 29.284 54.7648 29.284ZM62.8944 28.164C63.0204 28.164 63.1464 28.164 63.3004 28.178V29.508H62.9504C61.5644 29.508 60.6964 30.194 60.6964 31.58V35.5H59.2964V28.276H60.6404V29.564C61.0324 28.78 61.7464 28.164 62.8944 28.164ZM67.2227 26.666C66.5927 26.666 66.2847 27.002 66.2847 27.618V28.276H67.7967V29.424H66.2847V35.5H64.8847V29.424H63.7227V28.276H64.8847V27.618C64.8847 26.344 65.4867 25.49 67.0547 25.49C67.2927 25.49 67.6567 25.518 67.8527 25.532V26.666H67.2227ZM74.5293 34.422H74.9213V35.5C74.7113 35.528 74.4593 35.542 74.2353 35.542C73.3393 35.542 72.9333 35.22 72.8353 34.52C72.3453 35.276 71.5333 35.668 70.4833 35.668C68.9293 35.668 67.9073 34.912 67.9073 33.526C67.9073 32.364 68.6073 31.482 70.6233 31.286L71.6873 31.174C72.3873 31.09 72.7653 30.852 72.7653 30.264C72.7653 29.592 72.4153 29.228 71.2813 29.228C70.1473 29.228 69.6713 29.55 69.6013 30.53H68.2153C68.2993 29.074 69.1113 28.108 71.2813 28.108C73.3533 28.108 74.1373 28.976 74.1373 30.236V34.058C74.1373 34.282 74.2493 34.422 74.5293 34.422ZM70.6933 34.576C71.7153 34.576 72.7653 34.002 72.7653 32.644V31.888C72.5553 32.056 72.2613 32.14 71.8693 32.182L70.8613 32.294C69.6993 32.434 69.3493 32.84 69.3493 33.484C69.3493 34.142 69.7833 34.576 70.6933 34.576ZM78.7461 35.668C76.7021 35.668 75.3021 34.198 75.3021 31.888C75.3021 29.578 76.6741 28.108 78.7461 28.108C80.5381 28.108 81.7421 29.158 81.9661 30.796H80.5381C80.3421 29.788 79.6001 29.326 78.7461 29.326C77.5981 29.326 76.7581 30.138 76.7581 31.888C76.7581 33.638 77.6261 34.45 78.7461 34.45C79.6141 34.45 80.3841 33.974 80.5521 32.924H81.9801C81.7561 34.632 80.4681 35.668 78.7461 35.668ZM89.4733 31.944V32.35H84.0273C84.1533 33.82 84.9373 34.492 86.0993 34.492C87.0373 34.492 87.6393 34.016 87.8913 33.288H89.3053C88.9413 34.688 87.8073 35.668 86.0713 35.668C84.0273 35.668 82.6133 34.212 82.6133 31.888C82.6133 29.62 83.9853 28.108 86.0433 28.108C88.2273 28.108 89.4733 29.774 89.4733 31.944ZM86.0433 29.284C84.9933 29.284 84.2233 29.914 84.0413 31.244H88.0313C87.9053 30.124 87.2193 29.284 86.0433 29.284ZM93.2079 35.682C91.2759 35.682 90.1419 34.926 90.0439 33.204H91.4439C91.5559 34.212 92.0459 34.576 93.2219 34.576C94.3559 34.576 94.8179 34.212 94.8179 33.568C94.8179 32.994 94.4679 32.714 93.2779 32.504L92.5359 32.364C90.9819 32.084 90.2399 31.384 90.2399 30.208C90.2399 28.934 91.2479 28.108 93.0259 28.108C95.0839 28.108 96.0359 29.004 96.0779 30.53H94.7199C94.6639 29.494 94.0479 29.2 93.0259 29.2C92.1159 29.2 91.6259 29.564 91.6259 30.166C91.6259 30.782 92.1159 31.02 92.9699 31.188L93.7259 31.314C95.4899 31.65 96.2319 32.266 96.2319 33.47C96.2319 34.884 95.0979 35.682 93.2079 35.682Z" fill="white"/>
<path d="M145.241 194.876H139.949V197.69H144.723V199.006H139.949V203.5H138.451V193.532H145.241V194.876ZM145.897 195.254V193.756H147.325V195.254H145.897ZM145.911 203.5V196.276H147.311V203.5H145.911ZM152.35 196.108C153.918 196.108 154.884 197.004 154.884 198.656V203.5H153.484V198.852C153.484 197.816 152.938 197.34 151.958 197.34C151.104 197.34 150.138 197.97 150.138 199.426V203.5H148.738V196.276H150.082V197.354C150.558 196.64 151.328 196.108 152.35 196.108ZM162.846 199.944V200.35H157.4C157.526 201.82 158.31 202.492 159.472 202.492C160.41 202.492 161.012 202.016 161.264 201.288H162.678C162.314 202.688 161.18 203.668 159.444 203.668C157.4 203.668 155.986 202.212 155.986 199.888C155.986 197.62 157.358 196.108 159.416 196.108C161.6 196.108 162.846 197.774 162.846 199.944ZM159.416 197.284C158.366 197.284 157.596 197.914 157.414 199.244H161.404C161.278 198.124 160.592 197.284 159.416 197.284ZM173.988 203.5L173.008 200.91H168.528L167.562 203.5H166.008L169.9 193.532H171.622L175.57 203.5H173.988ZM169.004 199.608H172.518L172.308 199.062C171.902 198.04 171.258 196.36 170.754 194.974C170.25 196.36 169.606 198.04 169.214 199.062L169.004 199.608ZM179.871 196.164C179.997 196.164 180.123 196.164 180.277 196.178V197.508H179.927C178.541 197.508 177.673 198.194 177.673 199.58V203.5H176.273V196.276H177.617V197.564C178.009 196.78 178.723 196.164 179.871 196.164ZM184.649 197.424H183.193V201.764C183.193 202.184 183.403 202.38 184.019 202.38H184.649V203.5C184.341 203.528 184.047 203.542 183.795 203.542C182.493 203.542 181.793 203.094 181.793 201.89V197.424H180.631V196.276H181.793V194.204H183.193V196.276H184.649V197.424Z" fill="white"/>
<path d="M25.7973 91.5L24.8173 88.91H20.3373L19.3713 91.5H17.8173L21.7093 81.532H23.4313L27.3793 91.5H25.7973ZM20.8133 87.608H24.3273L24.1173 87.062C23.7113 86.04 23.0673 84.36 22.5633 82.974C22.0593 84.36 21.4153 86.04 21.0233 87.062L20.8133 87.608ZM35.6737 90.282C35.7017 90.716 35.7997 91.178 36.0097 91.5H34.4697C34.2597 91.192 34.1897 90.744 34.1757 90.226L34.1337 89.162C34.0777 87.818 33.5457 87.398 32.4397 87.398H29.5417V91.5H28.0437V81.532H32.3977C34.4977 81.532 35.8277 82.554 35.8277 84.29C35.8277 85.536 35.1837 86.362 34.1477 86.698C35.1697 86.992 35.5337 87.692 35.5757 88.728L35.6737 90.282ZM32.4257 86.152C33.5177 86.152 34.2877 85.578 34.2877 84.43C34.2877 83.324 33.5177 82.82 32.3137 82.82H29.5417V86.152H32.4257ZM36.3498 91.5L39.9198 81.532H41.2778L37.7078 91.5H36.3498ZM49.0185 81.532H50.5725L46.9325 91.5H45.2245L41.5145 81.532H43.0965L45.1825 87.328C45.5045 88.238 45.8125 89.162 46.0785 90.072C46.3585 89.162 46.6665 88.238 46.9745 87.328L49.0185 81.532ZM58.9744 90.282C59.0024 90.716 59.1004 91.178 59.3104 91.5H57.7704C57.5604 91.192 57.4904 90.744 57.4764 90.226L57.4344 89.162C57.3784 87.818 56.8464 87.398 55.7404 87.398H52.8424V91.5H51.3444V81.532H55.6984C57.7984 81.532 59.1284 82.554 59.1284 84.29C59.1284 85.536 58.4844 86.362 57.4484 86.698C58.4704 86.992 58.8344 87.692 58.8764 88.728L58.9744 90.282ZM55.7264 86.152C56.8184 86.152 57.5884 85.578 57.5884 84.43C57.5884 83.324 56.8184 82.82 55.6144 82.82H52.8424V86.152H55.7264Z" fill="white"/>
<path d="M180.608 138.876H175.316V141.69H180.09V143.006H175.316V147.5H173.818V137.532H180.608V138.876ZM186.024 140.276H187.424V147.5H186.08V146.422C185.618 147.136 184.834 147.668 183.812 147.668C182.258 147.668 181.278 146.772 181.278 145.12V140.276H182.678V144.924C182.678 145.96 183.224 146.436 184.204 146.436C185.072 146.436 186.024 145.806 186.024 144.35V140.276ZM188.863 147.5V137.532H190.263V147.5H188.863ZM191.689 147.5V137.532H193.089V147.5H191.689ZM194.25 144.168V142.95H198.352V144.168H194.25ZM203.502 147.724C200.996 147.724 199.33 146.618 199.316 144.21H200.814C200.842 145.932 202.018 146.45 203.53 146.45C205 146.45 205.826 145.876 205.826 144.784C205.826 143.902 205.238 143.496 203.572 143.132L202.718 142.95C200.912 142.586 199.61 141.816 199.61 140.01C199.61 138.386 200.926 137.308 203.138 137.308C206.008 137.308 207.058 138.722 207.1 140.458H205.616C205.532 139.282 204.958 138.582 203.152 138.582C201.808 138.582 201.136 139.128 201.136 139.982C201.136 140.864 201.598 141.284 203.306 141.662L204.174 141.844C206.498 142.334 207.38 143.23 207.38 144.742C207.38 146.59 205.938 147.724 203.502 147.724ZM211.639 141.424H210.183V145.764C210.183 146.184 210.393 146.38 211.009 146.38H211.639V147.5C211.331 147.528 211.037 147.542 210.785 147.542C209.483 147.542 208.783 147.094 208.783 145.89V141.424H207.621V140.276H208.783V138.204H210.183V140.276H211.639V141.424ZM218.783 146.422H219.175V147.5C218.965 147.528 218.713 147.542 218.489 147.542C217.593 147.542 217.187 147.22 217.089 146.52C216.599 147.276 215.787 147.668 214.737 147.668C213.183 147.668 212.161 146.912 212.161 145.526C212.161 144.364 212.861 143.482 214.877 143.286L215.941 143.174C216.641 143.09 217.019 142.852 217.019 142.264C217.019 141.592 216.669 141.228 215.535 141.228C214.401 141.228 213.925 141.55 213.855 142.53H212.469C212.553 141.074 213.365 140.108 215.535 140.108C217.607 140.108 218.391 140.976 218.391 142.236V146.058C218.391 146.282 218.503 146.422 218.783 146.422ZM214.947 146.576C215.969 146.576 217.019 146.002 217.019 144.644V143.888C216.809 144.056 216.515 144.14 216.123 144.182L215.115 144.294C213.953 144.434 213.603 144.84 213.603 145.484C213.603 146.142 214.037 146.576 214.947 146.576ZM223 147.668C220.956 147.668 219.556 146.198 219.556 143.888C219.556 141.578 220.928 140.108 223 140.108C224.792 140.108 225.996 141.158 226.22 142.796H224.792C224.596 141.788 223.854 141.326 223 141.326C221.852 141.326 221.012 142.138 221.012 143.888C221.012 145.638 221.88 146.45 223 146.45C223.868 146.45 224.638 145.974 224.806 144.924H226.234C226.01 146.632 224.722 147.668 223 147.668ZM232.075 147.5L229.779 143.846L228.575 145.022V147.5H227.189V137.532H228.575V143.412L231.753 140.276H233.503L230.773 142.936L233.685 147.5H232.075Z" fill="white"/>
<path d="M173.511 53.532H175.065L172.265 63.5H170.585L169.325 58.838C169.031 57.732 168.723 56.528 168.457 55.38C168.191 56.528 167.883 57.732 167.589 58.838L166.329 63.5H164.649L161.849 53.532H163.403L164.621 58.054C164.929 59.23 165.265 60.504 165.545 61.736C165.839 60.504 166.133 59.23 166.455 58.026L167.659 53.532H169.255L170.459 58.026C170.781 59.23 171.075 60.504 171.369 61.736C171.649 60.504 171.985 59.23 172.293 58.054L173.511 53.532ZM181.495 59.944V60.35H176.049C176.175 61.82 176.959 62.492 178.121 62.492C179.059 62.492 179.661 62.016 179.913 61.288H181.327C180.963 62.688 179.829 63.668 178.093 63.668C176.049 63.668 174.635 62.212 174.635 59.888C174.635 57.62 176.007 56.108 178.065 56.108C180.249 56.108 181.495 57.774 181.495 59.944ZM178.065 57.284C177.015 57.284 176.245 57.914 176.063 59.244H180.053C179.927 58.124 179.241 57.284 178.065 57.284ZM186.349 56.108C188.351 56.108 189.653 57.578 189.653 59.888C189.653 62.198 188.351 63.668 186.349 63.668C185.271 63.668 184.459 63.206 183.941 62.408V63.5H182.597V53.532H183.997V57.284C184.515 56.542 185.313 56.108 186.349 56.108ZM186.083 62.464C187.371 62.464 188.197 61.484 188.197 59.832C188.197 58.18 187.371 57.312 186.083 57.312C184.795 57.312 183.969 58.236 183.969 59.888C183.969 61.54 184.795 62.464 186.083 62.464ZM193.307 63.682C191.375 63.682 190.241 62.926 190.143 61.204H191.543C191.655 62.212 192.145 62.576 193.321 62.576C194.455 62.576 194.917 62.212 194.917 61.568C194.917 60.994 194.567 60.714 193.377 60.504L192.635 60.364C191.081 60.084 190.339 59.384 190.339 58.208C190.339 56.934 191.347 56.108 193.125 56.108C195.183 56.108 196.135 57.004 196.177 58.53H194.819C194.763 57.494 194.147 57.2 193.125 57.2C192.215 57.2 191.725 57.564 191.725 58.166C191.725 58.782 192.215 59.02 193.069 59.188L193.825 59.314C195.589 59.65 196.331 60.266 196.331 61.47C196.331 62.884 195.197 63.682 193.307 63.682ZM197.219 55.254V53.756H198.647V55.254H197.219ZM197.233 63.5V56.276H198.633V63.5H197.233ZM203.49 57.424H202.034V61.764C202.034 62.184 202.244 62.38 202.86 62.38H203.49V63.5C203.182 63.528 202.888 63.542 202.636 63.542C201.334 63.542 200.634 63.094 200.634 61.89V57.424H199.472V56.276H200.634V54.204H202.034V56.276H203.49V57.424ZM210.86 59.944V60.35H205.414C205.54 61.82 206.324 62.492 207.486 62.492C208.424 62.492 209.026 62.016 209.278 61.288H210.692C210.328 62.688 209.194 63.668 207.458 63.668C205.414 63.668 204 62.212 204 59.888C204 57.62 205.372 56.108 207.43 56.108C209.614 56.108 210.86 57.774 210.86 59.944ZM207.43 57.284C206.38 57.284 205.61 57.914 205.428 59.244H209.418C209.292 58.124 208.606 57.284 207.43 57.284ZM214.594 63.682C212.662 63.682 211.528 62.926 211.43 61.204H212.83C212.942 62.212 213.432 62.576 214.608 62.576C215.742 62.576 216.204 62.212 216.204 61.568C216.204 60.994 215.854 60.714 214.664 60.504L213.922 60.364C212.368 60.084 211.626 59.384 211.626 58.208C211.626 56.934 212.634 56.108 214.412 56.108C216.47 56.108 217.422 57.004 217.464 58.53H216.106C216.05 57.494 215.434 57.2 214.412 57.2C213.502 57.2 213.012 57.564 213.012 58.166C213.012 58.782 213.502 59.02 214.356 59.188L215.112 59.314C216.876 59.65 217.618 60.266 217.618 61.47C217.618 62.884 216.484 63.682 214.594 63.682Z" fill="white"/>
<path d="M62.1748 117.792C63.3788 118.24 63.8968 119.178 63.8968 120.172C63.8968 121.866 62.7908 123 60.5648 123H56.0708V113.032H60.3688C62.5528 113.032 63.4908 114.236 63.4908 115.622C63.4908 116.616 63.0008 117.344 62.1748 117.792ZM60.2708 114.32H57.5688V117.302H60.2708C61.4468 117.302 62.0208 116.714 62.0208 115.748C62.0208 114.908 61.4468 114.32 60.2708 114.32ZM60.4808 121.712C61.7408 121.712 62.3848 121.124 62.3848 120.144C62.3848 119.038 61.6708 118.548 60.4808 118.548H57.5688V121.712H60.4808ZM68.2549 123.168C66.1409 123.168 64.6709 121.698 64.6709 119.388C64.6709 117.078 66.1409 115.608 68.2549 115.608C70.3549 115.608 71.8249 117.078 71.8249 119.388C71.8249 121.698 70.3549 123.168 68.2549 123.168ZM68.2549 121.964C69.5289 121.964 70.3689 121.04 70.3689 119.388C70.3689 117.736 69.5289 116.812 68.2549 116.812C66.9669 116.812 66.1269 117.736 66.1269 119.388C66.1269 121.04 66.9669 121.964 68.2549 121.964ZM76.1677 123.168C74.0537 123.168 72.5837 121.698 72.5837 119.388C72.5837 117.078 74.0537 115.608 76.1677 115.608C78.2677 115.608 79.7377 117.078 79.7377 119.388C79.7377 121.698 78.2677 123.168 76.1677 123.168ZM76.1677 121.964C77.4417 121.964 78.2817 121.04 78.2817 119.388C78.2817 117.736 77.4417 116.812 76.1677 116.812C74.8797 116.812 74.0397 117.736 74.0397 119.388C74.0397 121.04 74.8797 121.964 76.1677 121.964ZM85.7184 123L83.4224 119.346L82.2184 120.522V123H80.8324V113.032H82.2184V118.912L85.3964 115.776H87.1464L84.4164 118.436L87.3284 123H85.7184ZM90.3527 123.182C88.4207 123.182 87.2867 122.426 87.1887 120.704H88.5887C88.7007 121.712 89.1907 122.076 90.3667 122.076C91.5007 122.076 91.9627 121.712 91.9627 121.068C91.9627 120.494 91.6127 120.214 90.4227 120.004L89.6807 119.864C88.1267 119.584 87.3847 118.884 87.3847 117.708C87.3847 116.434 88.3927 115.608 90.1707 115.608C92.2287 115.608 93.1807 116.504 93.2227 118.03H91.8647C91.8087 116.994 91.1927 116.7 90.1707 116.7C89.2607 116.7 88.7707 117.064 88.7707 117.666C88.7707 118.282 89.2607 118.52 90.1147 118.688L90.8707 118.814C92.6347 119.15 93.3767 119.766 93.3767 120.97C93.3767 122.384 92.2427 123.182 90.3527 123.182Z" fill="white"/>
<path d="M42.7129 175.5V165.532H44.2109V175.5H42.7129ZM51.0214 165.532H52.4214V175.5H51.0774V174.436C50.5594 175.206 49.7474 175.668 48.6834 175.668C46.6674 175.668 45.3794 174.198 45.3794 171.888C45.3794 169.578 46.6674 168.108 48.6834 168.108C49.7054 168.108 50.5034 168.528 51.0214 169.256V165.532ZM48.9494 174.464C50.2374 174.464 51.0634 173.54 51.0634 171.888C51.0634 170.236 50.2374 169.312 48.9494 169.312C47.6614 169.312 46.8354 170.292 46.8354 171.944C46.8354 173.596 47.6614 174.464 48.9494 174.464ZM60.3846 171.944V172.35H54.9386C55.0646 173.82 55.8486 174.492 57.0106 174.492C57.9486 174.492 58.5506 174.016 58.8026 173.288H60.2166C59.8526 174.688 58.7186 175.668 56.9826 175.668C54.9386 175.668 53.5246 174.212 53.5246 171.888C53.5246 169.62 54.8966 168.108 56.9546 168.108C59.1386 168.108 60.3846 169.774 60.3846 171.944ZM56.9546 169.284C55.9046 169.284 55.1346 169.914 54.9526 171.244H58.9426C58.8166 170.124 58.1306 169.284 56.9546 169.284ZM65.0982 168.108C66.6662 168.108 67.6322 169.004 67.6322 170.656V175.5H66.2322V170.852C66.2322 169.816 65.6862 169.34 64.7062 169.34C63.8522 169.34 62.8862 169.97 62.8862 171.426V175.5H61.4862V168.276H62.8302V169.354C63.3062 168.64 64.0762 168.108 65.0982 168.108ZM72.2411 169.424H70.7851V173.764C70.7851 174.184 70.9951 174.38 71.6111 174.38H72.2411V175.5C71.9331 175.528 71.6391 175.542 71.3871 175.542C70.0851 175.542 69.3851 175.094 69.3851 173.89V169.424H68.2231V168.276H69.3851V166.204H70.7851V168.276H72.2411V169.424ZM73.2098 167.254V165.756H74.6378V167.254H73.2098ZM73.2238 175.5V168.276H74.6238V175.5H73.2238ZM79.4806 169.424H78.0246V173.764C78.0246 174.184 78.2346 174.38 78.8506 174.38H79.4806V175.5C79.1726 175.528 78.8786 175.542 78.6266 175.542C77.3246 175.542 76.6246 175.094 76.6246 173.89V169.424H75.4626V168.276H76.6246V166.204H78.0246V168.276H79.4806V169.424ZM80.4493 167.254V165.756H81.8773V167.254H80.4493ZM80.4633 175.5V168.276H81.8633V175.5H80.4633ZM89.8141 171.944V172.35H84.3681C84.4941 173.82 85.2781 174.492 86.4401 174.492C87.3781 174.492 87.9801 174.016 88.2321 173.288H89.6461C89.2821 174.688 88.1481 175.668 86.4121 175.668C84.3681 175.668 82.9541 174.212 82.9541 171.888C82.9541 169.62 84.3261 168.108 86.3841 168.108C88.5681 168.108 89.8141 169.774 89.8141 171.944ZM86.3841 169.284C85.3341 169.284 84.5641 169.914 84.3821 171.244H88.3721C88.2461 170.124 87.5601 169.284 86.3841 169.284ZM93.5487 175.682C91.6167 175.682 90.4827 174.926 90.3847 173.204H91.7847C91.8967 174.212 92.3867 174.576 93.5627 174.576C94.6967 174.576 95.1587 174.212 95.1587 173.568C95.1587 172.994 94.8087 172.714 93.6187 172.504L92.8767 172.364C91.3227 172.084 90.5807 171.384 90.5807 170.208C90.5807 168.934 91.5887 168.108 93.3667 168.108C95.4247 168.108 96.3767 169.004 96.4187 170.53H95.0607C95.0047 169.494 94.3887 169.2 93.3667 169.2C92.4567 169.2 91.9667 169.564 91.9667 170.166C91.9667 170.782 92.4567 171.02 93.3107 171.188L94.0667 171.314C95.8307 171.65 96.5727 172.266 96.5727 173.47C96.5727 174.884 95.4387 175.682 93.5487 175.682Z" fill="white"/>
<path d="M87.9635 231.5H86.1295L85.2335 230.492C84.4775 231.248 83.4415 231.724 82.1115 231.724C80.0955 231.724 78.9195 230.45 78.9195 228.896C78.9195 227.496 79.7315 226.698 81.1735 225.928C80.3895 225.018 80.0395 224.374 80.0395 223.59C80.0395 222.344 80.9915 221.308 82.6435 221.308C84.0575 221.308 85.2335 222.12 85.2335 223.534C85.2335 224.556 84.4775 225.48 83.2035 226.194L85.1075 228.322C85.3035 227.79 85.4015 227.202 85.4155 226.642H86.7595C86.7315 227.594 86.4935 228.546 86.0595 229.372L87.9635 231.5ZM82.6575 222.498C81.9995 222.498 81.4815 222.918 81.4815 223.59C81.4815 224.066 81.7895 224.626 82.4335 225.34C83.3715 224.822 83.8475 224.29 83.8475 223.59C83.8475 222.946 83.3155 222.498 82.6575 222.498ZM82.2235 230.464C83.1475 230.464 83.8755 230.1 84.3795 229.54L81.9435 226.796C80.9915 227.314 80.4035 227.832 80.4035 228.798C80.4035 229.652 81.0615 230.464 82.2235 230.464ZM99.5272 221.532H101.613V231.5H100.171V228.378C100.171 226.964 100.171 225.214 100.227 223.324C99.9752 224.094 99.7232 224.766 99.3872 225.634L97.1332 231.5H95.8732L93.5912 225.634C93.2692 224.78 93.0172 224.122 92.7652 223.366C92.8212 225.242 92.8212 226.978 92.8212 228.378V231.5H91.3792V221.532H93.4512L95.4952 226.838C95.8452 227.776 96.2372 228.84 96.5172 229.652C96.7972 228.812 97.2032 227.65 97.5532 226.698L99.5272 221.532ZM106.366 231.668C104.252 231.668 102.782 230.198 102.782 227.888C102.782 225.578 104.252 224.108 106.366 224.108C108.466 224.108 109.936 225.578 109.936 227.888C109.936 230.198 108.466 231.668 106.366 231.668ZM106.366 230.464C107.64 230.464 108.48 229.54 108.48 227.888C108.48 226.236 107.64 225.312 106.366 225.312C105.078 225.312 104.238 226.236 104.238 227.888C104.238 229.54 105.078 230.464 106.366 230.464ZM114.629 224.164C114.755 224.164 114.881 224.164 115.035 224.178V225.508H114.685C113.299 225.508 112.431 226.194 112.431 227.58V231.5H111.031V224.276H112.375V225.564C112.767 224.78 113.481 224.164 114.629 224.164ZM122.05 227.944V228.35H116.604C116.73 229.82 117.514 230.492 118.676 230.492C119.614 230.492 120.216 230.016 120.468 229.288H121.882C121.518 230.688 120.384 231.668 118.648 231.668C116.604 231.668 115.19 230.212 115.19 227.888C115.19 225.62 116.562 224.108 118.62 224.108C120.804 224.108 122.05 225.774 122.05 227.944ZM118.62 225.284C117.57 225.284 116.8 225.914 116.618 227.244H120.608C120.482 226.124 119.796 225.284 118.62 225.284Z" fill="white"/>
</svg>
