<svg width="256" height="256" viewBox="0 0 256 256" fill="none" xmlns="http://www.w3.org/2000/svg">
<path d="M97.3718 65.532C99.6678 65.532 100.9 66.848 100.9 68.78C100.9 70.698 99.6678 72.014 97.3718 72.014H94.8798V75.5H92.9898V65.532H97.3718ZM97.2878 70.39C98.3938 70.39 98.9958 69.816 98.9958 68.78C98.9958 67.744 98.3938 67.156 97.2878 67.156H94.8798V70.39H97.2878ZM109.404 74.338C109.418 74.772 109.516 75.206 109.712 75.5H107.766C107.584 75.206 107.514 74.8 107.5 74.31L107.458 73.218C107.402 71.944 106.87 71.594 105.862 71.594H103.398V75.5H101.508V65.532H106.03C108.326 65.532 109.544 66.666 109.544 68.346C109.544 69.494 108.956 70.348 107.878 70.726C108.984 71.076 109.278 71.818 109.32 72.854L109.404 74.338ZM103.398 70.11H105.918C106.94 70.11 107.598 69.578 107.598 68.556C107.598 67.576 106.94 67.086 105.848 67.086H103.398V70.11ZM114.822 75.724C111.826 75.724 109.838 73.652 109.838 70.516C109.838 67.38 111.826 65.308 114.822 65.308C117.804 65.308 119.792 67.38 119.792 70.516C119.792 73.652 117.804 75.724 114.822 75.724ZM114.822 74.058C116.642 74.058 117.832 72.714 117.832 70.516C117.832 68.318 116.642 66.974 114.822 66.974C113.002 66.974 111.812 68.318 111.812 70.516C111.812 72.714 113.002 74.058 114.822 74.058ZM124.253 65.532C127.501 65.532 129.251 67.478 129.251 70.516C129.251 73.554 127.501 75.5 124.253 75.5H120.445V65.532H124.253ZM124.225 73.876C126.157 73.876 127.291 72.728 127.291 70.516C127.291 68.304 126.157 67.156 124.225 67.156H122.335V73.876H124.225ZM133.938 75.71C131.432 75.71 129.766 74.338 129.766 71.748V65.532H131.656V71.762C131.656 73.33 132.51 74.072 133.938 74.072C135.366 74.072 136.22 73.33 136.22 71.762V65.532H138.11V71.748C138.11 74.338 136.5 75.71 133.938 75.71ZM143.449 75.724C140.607 75.724 138.619 73.736 138.619 70.516C138.619 67.296 140.565 65.308 143.449 65.308C145.661 65.308 147.537 66.498 147.971 68.962H146.053C145.703 67.562 144.667 66.96 143.449 66.96C141.671 66.96 140.593 68.29 140.593 70.516C140.593 72.756 141.671 74.072 143.449 74.072C144.723 74.072 145.899 73.316 146.123 71.748H148.013C147.733 74.38 145.731 75.724 143.449 75.724ZM155.599 65.532V67.226H152.407V75.5H150.503V67.226H147.311V65.532H155.599ZM159.514 75.724C156.854 75.724 155.258 74.506 155.244 72.21H157.106C157.134 73.778 158.184 74.198 159.57 74.198C160.872 74.198 161.586 73.694 161.586 72.756C161.586 71.972 161.068 71.622 159.542 71.314L158.702 71.146C156.77 70.782 155.496 69.928 155.496 68.122C155.496 66.47 156.798 65.308 159.192 65.308C161.992 65.308 163.182 66.624 163.252 68.5H161.418C161.348 67.436 160.802 66.834 159.22 66.834C158.016 66.834 157.428 67.31 157.428 68.066C157.428 68.864 157.89 69.228 159.374 69.536L160.242 69.704C162.594 70.166 163.546 71.076 163.546 72.658C163.546 74.632 162.006 75.724 159.514 75.724Z" fill="white"/>
<path d="M106.676 94.532H108.636L105.878 104.5H103.75L102.686 100.356C102.406 99.208 102.112 98.004 101.874 96.828C101.636 98.004 101.356 99.208 101.062 100.356L99.9984 104.5H97.8844L95.1124 94.532H97.0864L98.1224 98.55C98.4304 99.782 98.7664 101.084 99.0324 102.344C99.2984 101.084 99.5924 99.782 99.8864 98.536L100.908 94.532H102.854L103.876 98.536C104.184 99.782 104.464 101.098 104.716 102.358C104.996 101.098 105.318 99.782 105.626 98.55L106.676 94.532ZM116.316 96.226H110.856V98.578H115.798V100.202H110.856V102.806H116.288V104.5H108.966V94.532H116.316V96.226ZM123.321 99.25C124.497 99.684 125.057 100.65 125.057 101.644C125.057 103.352 123.937 104.5 121.585 104.5H116.923V94.532H121.431C123.727 94.532 124.651 95.75 124.651 97.108C124.651 98.088 124.147 98.83 123.321 99.25ZM121.291 96.086H118.813V98.69H121.291C122.271 98.69 122.775 98.172 122.775 97.346C122.775 96.604 122.271 96.086 121.291 96.086ZM121.487 102.932C122.551 102.932 123.125 102.428 123.125 101.56C123.125 100.622 122.509 100.174 121.487 100.174H118.813V102.932H121.487ZM129.386 104.724C126.726 104.724 125.13 103.506 125.116 101.21H126.978C127.006 102.778 128.056 103.198 129.442 103.198C130.744 103.198 131.458 102.694 131.458 101.756C131.458 100.972 130.94 100.622 129.414 100.314L128.574 100.146C126.642 99.782 125.368 98.928 125.368 97.122C125.368 95.47 126.67 94.308 129.064 94.308C131.864 94.308 133.054 95.624 133.124 97.5H131.29C131.22 96.436 130.674 95.834 129.092 95.834C127.888 95.834 127.3 96.31 127.3 97.066C127.3 97.864 127.762 98.228 129.246 98.536L130.114 98.704C132.466 99.166 133.418 100.076 133.418 101.658C133.418 103.632 131.878 104.724 129.386 104.724ZM133.946 104.5V94.532H135.836V104.5H133.946ZM144.531 94.532V96.226H141.339V104.5H139.435V96.226H136.243V94.532H144.531ZM152.276 96.226H146.816V98.578H151.758V100.202H146.816V102.806H152.248V104.5H144.926V94.532H152.276V96.226ZM156.664 104.724C154.004 104.724 152.408 103.506 152.394 101.21H154.256C154.284 102.778 155.334 103.198 156.72 103.198C158.022 103.198 158.736 102.694 158.736 101.756C158.736 100.972 158.218 100.622 156.692 100.314L155.852 100.146C153.92 99.782 152.646 98.928 152.646 97.122C152.646 95.47 153.948 94.308 156.342 94.308C159.142 94.308 160.332 95.624 160.402 97.5H158.568C158.498 96.436 157.952 95.834 156.37 95.834C155.166 95.834 154.578 96.31 154.578 97.066C154.578 97.864 155.04 98.228 156.524 98.536L157.392 98.704C159.744 99.166 160.696 100.076 160.696 101.658C160.696 103.632 159.156 104.724 156.664 104.724Z" fill="white"/>
<path d="M111.939 128.25C113.115 128.684 113.675 129.65 113.675 130.644C113.675 132.352 112.555 133.5 110.203 133.5H105.541V123.532H110.049C112.345 123.532 113.269 124.75 113.269 126.108C113.269 127.088 112.765 127.83 111.939 128.25ZM109.909 125.086H107.431V127.69H109.909C110.889 127.69 111.393 127.172 111.393 126.346C111.393 125.604 110.889 125.086 109.909 125.086ZM110.105 131.932C111.169 131.932 111.743 131.428 111.743 130.56C111.743 129.622 111.127 129.174 110.105 129.174H107.431V131.932H110.105ZM118.733 133.724C115.737 133.724 113.749 131.652 113.749 128.516C113.749 125.38 115.737 123.308 118.733 123.308C121.715 123.308 123.703 125.38 123.703 128.516C123.703 131.652 121.715 133.724 118.733 133.724ZM118.733 132.058C120.553 132.058 121.743 130.714 121.743 128.516C121.743 126.318 120.553 124.974 118.733 124.974C116.913 124.974 115.723 126.318 115.723 128.516C115.723 130.714 116.913 132.058 118.733 132.058ZM128.919 133.724C125.923 133.724 123.935 131.652 123.935 128.516C123.935 125.38 125.923 123.308 128.919 123.308C131.901 123.308 133.889 125.38 133.889 128.516C133.889 131.652 131.901 133.724 128.919 133.724ZM128.919 132.058C130.739 132.058 131.929 130.714 131.929 128.516C131.929 126.318 130.739 124.974 128.919 124.974C127.099 124.974 125.909 126.318 125.909 128.516C125.909 130.714 127.099 132.058 128.919 132.058ZM143.445 123.532L139.343 127.592L143.445 133.5H141.191L137.999 128.852L136.431 130.378V133.5H134.541V123.532H136.431V128.236L141.093 123.532H143.445ZM146.963 133.724C144.303 133.724 142.707 132.506 142.693 130.21H144.555C144.583 131.778 145.633 132.198 147.019 132.198C148.321 132.198 149.035 131.694 149.035 130.756C149.035 129.972 148.517 129.622 146.991 129.314L146.151 129.146C144.219 128.782 142.945 127.928 142.945 126.122C142.945 124.47 144.247 123.308 146.641 123.308C149.441 123.308 150.631 124.624 150.701 126.5H148.867C148.797 125.436 148.251 124.834 146.669 124.834C145.465 124.834 144.877 125.31 144.877 126.066C144.877 126.864 145.339 127.228 146.823 127.536L147.691 127.704C150.043 128.166 150.995 129.076 150.995 130.658C150.995 132.632 149.455 133.724 146.963 133.724Z" fill="white"/>
<path d="M94.4658 162.5V152.532H96.3558V162.5H94.4658ZM101.241 152.532C104.489 152.532 106.239 154.478 106.239 157.516C106.239 160.554 104.489 162.5 101.241 162.5H97.4331V152.532H101.241ZM101.213 160.876C103.145 160.876 104.279 159.728 104.279 157.516C104.279 155.304 103.145 154.156 101.213 154.156H99.3231V160.876H101.213ZM114.245 154.226H108.785V156.578H113.727V158.202H108.785V160.806H114.217V162.5H106.895V152.532H114.245V154.226ZM121.446 152.532H123.266V162.5H121.166L118.394 158.062C117.764 157.068 117.12 156.032 116.616 155.066C116.672 156.83 116.672 158.426 116.672 159.896V162.5H114.852V152.532H116.952L119.738 156.97C120.298 157.88 120.998 159.028 121.502 159.966C121.46 158.202 121.446 156.606 121.446 155.136V152.532ZM131.959 152.532V154.226H128.767V162.5H126.863V154.226H123.671V152.532H131.959ZM132.353 162.5V152.532H134.243V162.5H132.353ZM142.939 152.532V154.226H139.747V162.5H137.843V154.226H134.651V152.532H142.939ZM143.333 162.5V152.532H145.223V162.5H143.333ZM153.65 154.226H148.19V156.578H153.132V158.202H148.19V160.806H153.622V162.5H146.3V152.532H153.65V154.226ZM158.038 162.724C155.378 162.724 153.782 161.506 153.768 159.21H155.63C155.658 160.778 156.708 161.198 158.094 161.198C159.396 161.198 160.11 160.694 160.11 159.756C160.11 158.972 159.592 158.622 158.066 158.314L157.226 158.146C155.294 157.782 154.02 156.928 154.02 155.122C154.02 153.47 155.322 152.308 157.716 152.308C160.516 152.308 161.706 153.624 161.776 155.5H159.942C159.872 154.436 159.326 153.834 157.744 153.834C156.54 153.834 155.952 154.31 155.952 155.066C155.952 155.864 156.414 156.228 157.898 156.536L158.766 156.704C161.118 157.166 162.07 158.076 162.07 159.658C162.07 161.632 160.53 162.724 158.038 162.724Z" fill="white"/>
<path d="M112.326 191.5H110.114L109.386 190.674C108.588 191.332 107.58 191.724 106.404 191.724C104.234 191.724 102.988 190.464 102.988 188.812C102.988 187.454 103.772 186.628 105.158 185.928C104.416 185.074 104.08 184.472 104.08 183.702C104.08 182.386 105.102 181.308 106.88 181.308C108.476 181.308 109.666 182.19 109.666 183.618C109.666 184.668 108.938 185.578 107.608 186.264L109.344 188.196C109.554 187.692 109.666 187.146 109.68 186.6H111.304C111.262 187.622 110.968 188.602 110.464 189.428L112.326 191.5ZM106.936 182.722C106.32 182.722 105.858 183.114 105.858 183.702C105.858 184.122 106.124 184.612 106.712 185.256L106.74 185.284C107.594 184.808 108.028 184.318 108.028 183.702C108.028 183.142 107.566 182.722 106.936 182.722ZM106.558 190.212C107.3 190.212 107.902 189.96 108.392 189.554L106.054 186.95C105.298 187.37 104.836 187.86 104.836 188.672C104.836 189.47 105.452 190.212 106.558 190.212ZM122.912 181.532H125.656V191.5H123.85V188.462C123.85 186.95 123.864 185.326 123.906 183.52C123.682 184.276 123.458 184.948 123.15 185.816L121.134 191.5H119.58L117.55 185.816C117.256 184.962 117.032 184.29 116.808 183.548C116.85 185.34 116.864 186.964 116.864 188.462V191.5H115.044V181.532H117.788L119.51 186.376C119.804 187.272 120.112 188.252 120.364 189.078C120.616 188.21 120.938 187.174 121.246 186.278L122.912 181.532ZM131.298 191.724C128.302 191.724 126.314 189.652 126.314 186.516C126.314 183.38 128.302 181.308 131.298 181.308C134.28 181.308 136.268 183.38 136.268 186.516C136.268 189.652 134.28 191.724 131.298 191.724ZM131.298 190.058C133.118 190.058 134.308 188.714 134.308 186.516C134.308 184.318 133.118 182.974 131.298 182.974C129.478 182.974 128.288 184.318 128.288 186.516C128.288 188.714 129.478 190.058 131.298 190.058ZM144.816 190.338C144.83 190.772 144.928 191.206 145.124 191.5H143.178C142.996 191.206 142.926 190.8 142.912 190.31L142.87 189.218C142.814 187.944 142.282 187.594 141.274 187.594H138.81V191.5H136.92V181.532H141.442C143.738 181.532 144.956 182.666 144.956 184.346C144.956 185.494 144.368 186.348 143.29 186.726C144.396 187.076 144.69 187.818 144.732 188.854L144.816 190.338ZM138.81 186.11H141.33C142.352 186.11 143.01 185.578 143.01 184.556C143.01 183.576 142.352 183.086 141.26 183.086H138.81V186.11ZM153.021 183.226H147.561V185.578H152.503V187.202H147.561V189.806H152.993V191.5H145.671V181.532H153.021V183.226Z" fill="white"/>
</svg>
