<svg width="256" height="256" viewBox="0 0 256 256" fill="none" xmlns="http://www.w3.org/2000/svg">
<path d="M115.025 158.965C113.167 158.965 111.39 158.434 109.692 157.373C107.993 156.365 106.614 155.038 105.552 153.393C104.491 151.748 103.96 150.05 103.96 148.299C103.96 146.176 104.544 144.159 105.711 142.249C106.879 140.285 108.338 138.614 110.09 137.234C111.894 135.801 113.672 134.766 115.423 134.129C113.619 134.66 111.761 134.925 109.851 134.925C107.41 134.925 105.128 134.474 103.005 133.572C100.882 132.67 99.1841 131.396 97.9104 129.751C96.6368 128.053 96 126.063 96 123.781C96 121.499 96.4776 119.509 97.4328 117.811C98.4411 116.06 99.7678 114.706 101.413 113.751C103.058 112.796 104.862 112.318 106.826 112.318C109.161 112.318 111.549 113.008 113.99 114.388C116.484 115.715 118.554 117.413 120.199 119.483C119.297 118.156 118.501 116.537 117.811 114.627C117.174 112.663 116.856 110.62 116.856 108.498C116.856 106.375 117.307 104.464 118.209 102.766C119.164 101.015 120.464 99.6352 122.109 98.6269C123.808 97.5655 125.771 97.0348 128 97.0348C131.29 97.0348 133.944 98.1492 135.96 100.378C137.977 102.554 138.985 105.26 138.985 108.498C138.985 110.461 138.693 112.425 138.109 114.388C137.526 116.299 136.703 117.997 135.642 119.483L135.96 119.085C137.658 116.962 139.648 115.317 141.93 114.149C144.265 112.929 146.68 112.318 149.174 112.318C151.085 112.318 152.862 112.796 154.507 113.751C156.153 114.653 157.479 115.954 158.488 117.652C159.496 119.35 160 121.366 160 123.701C160 126.036 159.31 128.053 157.93 129.751C156.604 131.449 154.879 132.75 152.756 133.652C150.634 134.501 148.405 134.925 146.07 134.925C144.849 134.872 143.761 134.793 142.806 134.687C141.851 134.527 141.055 134.342 140.418 134.129C142.275 134.766 144.08 135.801 145.831 137.234C147.635 138.614 149.121 140.259 150.289 142.169C151.456 144.08 152.04 146.176 152.04 148.458C152.04 150.05 151.509 151.668 150.448 153.313C149.439 154.905 148.086 156.232 146.388 157.294C144.69 158.408 142.859 158.965 140.896 158.965C138.295 158.965 136.013 158.143 134.05 156.498C132.139 154.905 130.653 152.756 129.592 150.05C129.061 148.67 128.663 147.423 128.398 146.308C128.133 145.141 128 144.106 128 143.204C127.416 148.086 125.983 151.934 123.701 154.746C121.473 157.559 118.58 158.965 115.025 158.965ZM123.542 120.756L126.09 119.801C126.355 119.217 126.514 118.66 126.567 118.129C126.673 117.599 126.726 117.148 126.726 116.776C126.726 116.245 126.62 115.582 126.408 114.786C126.196 113.937 126.09 113.327 126.09 112.955C126.09 112.212 126.249 111.575 126.567 111.045C126.886 110.514 127.363 110.249 128 110.249C128.637 110.249 129.114 110.514 129.433 111.045C129.751 111.575 129.91 112.212 129.91 112.955C129.91 113.486 129.778 114.123 129.512 114.866C129.247 115.609 129.114 116.245 129.114 116.776C129.114 117.678 129.327 118.687 129.751 119.801L132.299 120.756C133.36 119.695 134.209 118.289 134.846 116.537C135.483 114.733 135.801 112.902 135.801 111.045C135.801 108.551 135.085 106.561 133.652 105.075C132.219 103.536 130.335 102.766 128 102.766C125.718 102.766 123.808 103.536 122.269 105.075C120.783 106.561 120.04 108.551 120.04 111.045C120.04 112.902 120.358 114.733 120.995 116.537C121.632 118.289 122.481 119.695 123.542 120.756ZM111.92 133.015C114.096 133.015 115.954 132.59 117.493 131.741V129.035C117.227 128.61 116.697 128.239 115.9 127.92C115.104 127.602 114.043 127.39 112.716 127.284C110.116 127.018 108.816 126.222 108.816 124.896C108.816 124.312 109.002 123.887 109.373 123.622C109.798 123.357 110.249 123.224 110.726 123.224C111.045 123.224 111.469 123.33 112 123.542C112.584 123.701 113.221 123.993 113.91 124.418C115.29 125.267 116.75 125.692 118.289 125.692H118.607L120.199 123.463C119.668 122.348 118.819 121.287 117.652 120.279C116.484 119.217 115.158 118.342 113.672 117.652C112.186 116.962 110.647 116.617 109.055 116.617C106.826 116.617 104.995 117.413 103.562 119.005C102.182 120.597 101.493 122.507 101.493 124.736C101.493 127.124 102.448 129.114 104.358 130.706C106.322 132.245 108.842 133.015 111.92 133.015ZM144 133.015C147.131 133.015 149.652 132.245 151.562 130.706C153.526 129.114 154.507 127.124 154.507 124.736C154.507 122.401 153.765 120.464 152.279 118.925C150.846 117.386 149.041 116.617 146.866 116.617C145.274 116.617 143.708 116.962 142.169 117.652C140.63 118.342 139.277 119.217 138.109 120.279C136.995 121.34 136.172 122.401 135.642 123.463L137.393 125.692H137.711L138.348 125.612C138.985 125.506 139.622 125.373 140.259 125.214C140.896 125.055 141.532 124.789 142.169 124.418C143.443 123.622 144.425 123.224 145.114 123.224C146.388 123.224 147.025 123.808 147.025 124.975C147.025 126.302 145.99 127.018 143.92 127.124C141.798 127.231 139.993 127.867 138.507 129.035L138.348 131.741C139.887 132.59 141.771 133.015 144 133.015ZM116.299 153.871C118.103 153.871 119.695 153.207 121.075 151.881C122.507 150.554 123.622 148.962 124.418 147.104C125.267 145.194 125.692 143.416 125.692 141.771V140.975L125.612 140.338L123.065 139.542C121.207 140.657 120.04 142.116 119.562 143.92C119.085 145.725 118.209 146.627 116.935 146.627C116.458 146.627 116.033 146.441 115.662 146.07C115.343 145.645 115.184 145.221 115.184 144.796C115.184 143.735 115.874 142.726 117.254 141.771C118.634 140.816 119.562 139.383 120.04 137.473L118.607 135.244C117.227 135.509 115.715 136.146 114.07 137.154C112.425 138.163 111.018 139.436 109.851 140.975C108.736 142.514 108.179 144.212 108.179 146.07C108.179 147.449 108.577 148.75 109.373 149.97C110.169 151.138 111.177 152.093 112.398 152.836C113.672 153.526 114.972 153.871 116.299 153.871ZM139.224 153.871C140.604 153.871 141.904 153.499 143.124 152.756C144.398 152.013 145.406 151.058 146.149 149.891C146.945 148.67 147.343 147.396 147.343 146.07C147.343 144.212 146.76 142.541 145.592 141.055C144.478 139.516 143.098 138.242 141.453 137.234C139.861 136.226 138.348 135.562 136.915 135.244L135.483 137.473C135.695 138.375 136.013 139.171 136.438 139.861C136.915 140.551 137.499 141.187 138.189 141.771C139.569 142.886 140.259 143.947 140.259 144.955C140.259 145.38 140.073 145.778 139.701 146.149C139.383 146.468 139.012 146.627 138.587 146.627C137.42 146.627 136.517 145.725 135.881 143.92C135.297 142.275 134.156 140.816 132.458 139.542L129.91 140.338L129.831 140.975V141.771C129.831 142.726 130.017 143.867 130.388 145.194C130.813 146.468 131.37 147.741 132.06 149.015C132.803 150.235 133.652 151.244 134.607 152.04C136.093 153.26 137.632 153.871 139.224 153.871Z" fill="#F8F7F7"/>
</svg>
