<svg width="800" height="1200" viewBox="0 0 800 1200" fill="none" xmlns="http://www.w3.org/2000/svg">
<path d="M490.359 420.371C588.925 398.837 768.753 332.615 699.533 239.994C613.007 124.217 535.722 160.292 507.16 172.877C493.253 179.004 476.15 212.378 461.99 246.705C479.42 185.655 484.366 115.565 429.875 105.76C336.629 88.9807 213.141 151.903 243.383 208.113C267.576 253.082 349.23 307.39 387.032 328.924C275.585 295.365 59.4106 251.404 86.2924 344.025C119.895 459.802 208.1 529.436 307.227 482.454C308.19 481.997 309.142 481.543 310.084 481.089C245.431 546.565 190.342 619.004 243.383 627.594C336.629 642.695 401.313 626.755 415.594 572.223C427.019 528.597 429.875 479.098 429.875 459.802C450.036 528.037 504.136 657.126 559.244 627.594C628.128 590.68 683.572 582.29 646.609 537.825C617.039 502.253 530.121 444.7 490.359 420.371Z" fill="url(#paint0_linear_743_495)"/>
<path d="M409.768 906.118C484.022 725.994 454.951 520.987 431.133 441L444.963 444.643C455.031 481.232 476.486 595.922 481.764 761.964C487.042 928.005 402.569 1053.84 359.673 1096L337.861 1078.05C333.739 1087.25 334.585 1084.36 337.168 1077.48L337.861 1078.05C344.492 1063.26 363.979 1017.19 409.768 906.118Z" fill="url(#paint1_linear_743_495)"/>
<path d="M382.832 344.609C390.462 323.13 429.458 331.799 448.002 338.818C494.444 356.398 511.027 374.656 490.017 397.673C453.052 438.167 431.577 443.583 410.384 438.318C389.19 433.054 373.295 371.458 382.832 344.609Z" fill="url(#paint2_linear_743_495)"/>
<defs>
<linearGradient id="paint0_linear_743_495" x1="399.5" y1="103" x2="399.5" y2="633" gradientUnits="userSpaceOnUse">
<stop stop-color="#FBFCCB"/>
<stop offset="0.211538" stop-color="#FFC9C9"/>
<stop offset="0.370192" stop-color="#FFC7FB"/>
<stop offset="0.5" stop-color="#F0EAFF"/>
<stop offset="0.615385" stop-color="#F9CFFD"/>
<stop offset="0.673077" stop-color="#CDFFE2"/>
<stop offset="0.783654" stop-color="#F8FFCD"/>
<stop offset="0.879808" stop-color="#F5EABE"/>
</linearGradient>
<linearGradient id="paint1_linear_743_495" x1="408.5" y1="441" x2="408.5" y2="1096" gradientUnits="userSpaceOnUse">
<stop stop-color="#E0E5FF"/>
<stop offset="1" stop-color="#BFF3BB"/>
</linearGradient>
<linearGradient id="paint2_linear_743_495" x1="434.363" y1="448.995" x2="434.363" y2="331" gradientUnits="userSpaceOnUse">
<stop stop-color="#C2FDD0"/>
<stop offset="0.307692" stop-color="#F9FCCD"/>
<stop offset="0.610577" stop-color="#FFD5D6"/>
<stop offset="0.956731" stop-color="#AFECFA"/>
</linearGradient>
</defs>
</svg>
