<svg width="800" height="1200" viewBox="0 0 800 1200" fill="none" xmlns="http://www.w3.org/2000/svg">
<path d="M308.641 420.371C210.075 398.837 30.2469 332.615 99.4674 239.994C185.993 124.217 263.278 160.292 291.84 172.877C305.747 179.004 322.85 212.378 337.01 246.705C319.58 185.655 314.634 115.565 369.125 105.76C462.371 88.9807 585.859 151.903 555.617 208.113C531.424 253.082 449.77 307.39 411.968 328.924C523.415 295.365 739.589 251.404 712.708 344.025C679.105 459.802 590.9 529.436 491.773 482.454C490.81 481.997 489.858 481.543 488.916 481.089C553.569 546.565 608.658 619.004 555.617 627.594C462.371 642.695 397.687 626.755 383.406 572.223C371.981 528.597 369.125 479.098 369.125 459.802C348.964 528.037 294.864 657.126 239.756 627.594C170.872 590.68 115.428 582.29 152.391 537.825C181.961 502.253 268.879 444.7 308.641 420.371Z" fill="url(#paint0_linear_743_494)"/>
<path d="M389.232 906.118C314.978 725.994 344.049 520.987 367.867 441L354.037 444.643C343.969 481.232 322.514 595.922 317.236 761.964C311.958 928.005 396.431 1053.84 439.327 1096L461.139 1078.05C465.261 1087.25 464.415 1084.36 461.832 1077.48L461.139 1078.05C454.508 1063.26 435.021 1017.19 389.232 906.118Z" fill="url(#paint1_linear_743_494)"/>
<path d="M416.168 344.609C408.538 323.13 369.542 331.799 350.998 338.818C304.556 356.398 287.973 374.656 308.983 397.673C345.948 438.167 367.423 443.583 388.616 438.318C409.81 433.054 425.705 371.458 416.168 344.609Z" fill="url(#paint2_linear_743_494)"/>
<defs>
<linearGradient id="paint0_linear_743_494" x1="399.5" y1="103" x2="399.5" y2="633" gradientUnits="userSpaceOnUse">
<stop stop-color="#FBFCCB"/>
<stop offset="0.211538" stop-color="#FFC9C9"/>
<stop offset="0.370192" stop-color="#FFC7FB"/>
<stop offset="0.5" stop-color="#F0EAFF"/>
<stop offset="0.615385" stop-color="#F9CFFD"/>
<stop offset="0.673077" stop-color="#CDFFE2"/>
<stop offset="0.783654" stop-color="#F8FFCD"/>
<stop offset="0.879808" stop-color="#F5EABE"/>
</linearGradient>
<linearGradient id="paint1_linear_743_494" x1="390.5" y1="441" x2="390.5" y2="1096" gradientUnits="userSpaceOnUse">
<stop stop-color="#E0E5FF"/>
<stop offset="1" stop-color="#BFF3BB"/>
</linearGradient>
<linearGradient id="paint2_linear_743_494" x1="364.637" y1="448.995" x2="364.637" y2="331" gradientUnits="userSpaceOnUse">
<stop stop-color="#C2FDD0"/>
<stop offset="0.307692" stop-color="#F9FCCD"/>
<stop offset="0.610577" stop-color="#FFD5D6"/>
<stop offset="0.956731" stop-color="#AFECFA"/>
</linearGradient>
</defs>
</svg>
